<?xml version="1.0" encoding="UTF-8" standalone="no"?>
<!DOCTYPE svg PUBLIC "-//W3C//DTD SVG 1.1//EN"
 "http://www.w3.org/Graphics/SVG/1.1/DTD/svg11.dtd">
<!-- Generated by graphviz version 2.44.1 (20200629.0800)
 -->
<!-- Title: G Pages: 1 -->
<svg width="1667pt" height="937pt"
 viewBox="0.00 0.00 1666.63 936.84" xmlns="http://www.w3.org/2000/svg" xmlns:xlink="http://www.w3.org/1999/xlink">
<g id="graph0" class="graph" transform="scale(1 1) rotate(0) translate(4 932.84)">
<title>G</title><style>.edge>path:hover{stroke-width:8}</style>
<polygon fill="white" stroke="transparent" points="-4,4 -4,-932.84 1662.63,-932.84 1662.63,4 -4,4"/>
<g id="clust1" class="cluster">
<title>cluster_matplotlib</title><style>.edge>path:hover{stroke-width:8}</style>
<polygon fill="none" stroke="black" points="58,-554.56 58,-864.84 308,-864.84 308,-554.56 58,-554.56"/>
<text text-anchor="middle" x="183" y="-562.36" font-family="Times New Roman,serif" font-size="14.00">matplotlib</text>
</g>
<g id="clust2" class="cluster">
<title>cluster_sklearn</title><style>.edge>path:hover{stroke-width:8}</style>
<polygon fill="none" stroke="black" points="486,-436.13 486,-517.56 866,-517.56 866,-436.13 486,-436.13"/>
<text text-anchor="middle" x="676" y="-443.93" font-family="Times New Roman,serif" font-size="14.00">sklearn</text>
</g>
<!-- matplotlib -->
<g id="node1" class="node">
<title>matplotlib</title><style>.edge>path:hover{stroke-width:8}</style>
<ellipse fill="#e5e505" stroke="black" cx="227" cy="-603.56" rx="34.96" ry="18"/>
<text text-anchor="middle" x="227" y="-601.06" font-family="Helvetica,sans-Serif" font-size="10.00" fill="#000000">matplotlib</text>
</g>
<!-- matplotlib_pyplot -->
<g id="node6" class="node">
<title>matplotlib_pyplot</title><style>.edge>path:hover{stroke-width:8}</style>
<ellipse fill="#a1a135" stroke="black" cx="217" cy="-678.77" rx="43.68" ry="21.43"/>
<text text-anchor="middle" x="217" y="-681.77" font-family="Helvetica,sans-Serif" font-size="10.00" fill="#000000">matplotlib.</text>
<text text-anchor="middle" x="217" y="-670.77" font-family="Helvetica,sans-Serif" font-size="10.00" fill="#000000">pyplot</text>
</g>
<!-- matplotlib&#45;&gt;matplotlib_pyplot -->
<g id="edge18" class="edge">
<title>matplotlib&#45;&gt;matplotlib_pyplot</title><style>.edge>path:hover{stroke-width:8}</style>
<path fill="none" stroke="black" d="M224.68,-621.54C223.63,-629.25 222.35,-638.61 221.14,-647.47"/>
<polygon fill="#000000" stroke="black" points="217.65,-647.12 219.77,-657.5 224.59,-648.06 217.65,-647.12"/>
</g>
<!-- numpy -->
<g id="node27" class="node">
<title>numpy</title><style>.edge>path:hover{stroke-width:8}</style>
<ellipse fill="#06f980" stroke="black" cx="385" cy="-910.84" rx="27.16" ry="18"/>
<text text-anchor="middle" x="385" y="-908.34" font-family="Helvetica,sans-Serif" font-size="10.00" fill="#000000">numpy</text>
</g>
<!-- matplotlib&#45;&gt;numpy -->
<g id="edge22" class="edge">
<title>matplotlib&#45;&gt;numpy</title><style>.edge>path:hover{stroke-width:8}</style>
<path fill="none" stroke="black" d="M308,-726.24C338.7,-787.5 363.05,-849.76 375.63,-883.72"/>
<polygon fill="#000000" stroke="black" points="372.37,-884.99 379.09,-893.17 378.94,-882.58 372.37,-884.99"/>
</g>
<!-- matplotlib_cm -->
<g id="node2" class="node">
<title>matplotlib_cm</title><style>.edge>path:hover{stroke-width:8}</style>
<ellipse fill="#c4c431" stroke="black" cx="110" cy="-757.2" rx="44.3" ry="18"/>
<text text-anchor="middle" x="110" y="-754.7" font-family="Helvetica,sans-Serif" font-size="10.00" fill="#000000">matplotlib.cm</text>
</g>
<!-- matplotlib_cm&#45;&gt;numpy -->
<g id="edge23" class="edge">
<title>matplotlib_cm&#45;&gt;numpy</title><style>.edge>path:hover{stroke-width:8}</style>
<path fill="none" stroke="black" d="M187,-864.84C236.06,-897.29 305.28,-906.56 347.54,-909.07"/>
<polygon fill="#000000" stroke="black" points="347.51,-912.58 357.68,-909.58 347.86,-905.59 347.51,-912.58"/>
</g>
<!-- matplotlib_collections -->
<g id="node3" class="node">
<title>matplotlib_collections</title><style>.edge>path:hover{stroke-width:8}</style>
<ellipse fill="#a8a838" stroke="black" cx="111" cy="-678.77" rx="44.6" ry="21.43"/>
<text text-anchor="middle" x="111" y="-681.77" font-family="Helvetica,sans-Serif" font-size="10.00" fill="#000000">matplotlib.</text>
<text text-anchor="middle" x="111" y="-670.77" font-family="Helvetica,sans-Serif" font-size="10.00" fill="#000000">collections</text>
</g>
<!-- matplotlib_collections&#45;&gt;matplotlib_cm -->
<g id="edge5" class="edge">
<title>matplotlib_collections&#45;&gt;matplotlib_cm</title><style>.edge>path:hover{stroke-width:8}</style>
<path fill="none" stroke="black" d="M110.73,-700.25C110.62,-708.99 110.48,-719.32 110.36,-728.71"/>
<polygon fill="#000000" stroke="black" points="106.86,-728.73 110.23,-738.77 113.86,-728.82 106.86,-728.73"/>
</g>
<!-- matplotlib_patheffects -->
<g id="node5" class="node">
<title>matplotlib_patheffects</title><style>.edge>path:hover{stroke-width:8}</style>
<ellipse fill="#d0d024" stroke="black" cx="255" cy="-835.62" rx="45.01" ry="21.43"/>
<text text-anchor="middle" x="255" y="-838.62" font-family="Helvetica,sans-Serif" font-size="10.00" fill="#000000">matplotlib.</text>
<text text-anchor="middle" x="255" y="-827.62" font-family="Helvetica,sans-Serif" font-size="10.00" fill="#000000">patheffects</text>
</g>
<!-- matplotlib_collections&#45;&gt;matplotlib_patheffects -->
<g id="edge14" class="edge">
<title>matplotlib_collections&#45;&gt;matplotlib_patheffects</title><style>.edge>path:hover{stroke-width:8}</style>
<path fill="none" stroke="black" d="M144.58,-692.78C151.01,-695.21 157.7,-697.71 164,-699.98 210.39,-716.78 240.33,-695.84 269,-735.98 283.32,-756.03 277.37,-784.31 269.27,-805.45"/>
<polygon fill="#000000" stroke="black" points="265.95,-804.32 265.34,-814.9 272.41,-807.01 265.95,-804.32"/>
</g>
<!-- matplotlib_collections&#45;&gt;numpy -->
<g id="edge24" class="edge">
<title>matplotlib_collections&#45;&gt;numpy</title><style>.edge>path:hover{stroke-width:8}</style>
<path fill="none" stroke="black" d="M71,-864.84C111.41,-900.36 273.05,-907.87 347.33,-909.44"/>
<polygon fill="#000000" stroke="black" points="347.56,-912.94 357.63,-909.63 347.69,-905.94 347.56,-912.94"/>
</g>
<!-- matplotlib_patches -->
<g id="node4" class="node">
<title>matplotlib_patches</title><style>.edge>path:hover{stroke-width:8}</style>
<ellipse fill="#c8c823" stroke="black" cx="216" cy="-757.2" rx="43.68" ry="21.43"/>
<text text-anchor="middle" x="216" y="-760.2" font-family="Helvetica,sans-Serif" font-size="10.00" fill="#000000">matplotlib.</text>
<text text-anchor="middle" x="216" y="-749.2" font-family="Helvetica,sans-Serif" font-size="10.00" fill="#000000">patches</text>
</g>
<!-- matplotlib_patches&#45;&gt;matplotlib_patheffects -->
<g id="edge15" class="edge">
<title>matplotlib_patches&#45;&gt;matplotlib_patheffects</title><style>.edge>path:hover{stroke-width:8}</style>
<path fill="none" stroke="black" d="M220.39,-778.68C224.07,-787.3 229.1,-797.47 234.25,-806.76"/>
<polygon fill="#000000" stroke="black" points="231.37,-808.76 239.4,-815.66 237.43,-805.25 231.37,-808.76"/>
</g>
<!-- matplotlib_patches&#45;&gt;numpy -->
<g id="edge25" class="edge">
<title>matplotlib_patches&#45;&gt;numpy</title><style>.edge>path:hover{stroke-width:8}</style>
<path fill="none" stroke="black" d="M201,-864.84C218.92,-887.67 299.63,-900.41 348.01,-906.12"/>
<polygon fill="#000000" stroke="black" points="347.77,-909.62 358.1,-907.27 348.56,-902.66 347.77,-909.62"/>
</g>
<!-- matplotlib_patheffects&#45;&gt;matplotlib_patches -->
<g id="edge10" class="edge">
<title>matplotlib_patheffects&#45;&gt;matplotlib_patches</title><style>.edge>path:hover{stroke-width:8}</style>
<path fill="none" stroke="black" d="M250.69,-814.34C246.97,-805.59 241.83,-795.21 236.58,-785.77"/>
<polygon fill="#000000" stroke="black" points="239.6,-783.99 231.56,-777.09 233.54,-787.5 239.6,-783.99"/>
</g>
<!-- matplotlib_pyplot&#45;&gt;matplotlib_cm -->
<g id="edge6" class="edge">
<title>matplotlib_pyplot&#45;&gt;matplotlib_cm</title><style>.edge>path:hover{stroke-width:8}</style>
<path fill="none" stroke="black" d="M193.25,-696.73C177.42,-708.04 156.49,-722.99 139.57,-735.07"/>
<polygon fill="#000000" stroke="black" points="137.25,-732.44 131.14,-741.1 141.32,-738.13 137.25,-732.44"/>
</g>
<!-- matplotlib_pyplot&#45;&gt;matplotlib_patches -->
<g id="edge11" class="edge">
<title>matplotlib_pyplot&#45;&gt;matplotlib_patches</title><style>.edge>path:hover{stroke-width:8}</style>
<path fill="none" stroke="black" d="M216.73,-700.25C216.63,-708.11 216.51,-717.26 216.4,-725.85"/>
<polygon fill="#000000" stroke="black" points="212.9,-725.88 216.27,-735.93 219.9,-725.97 212.9,-725.88"/>
</g>
<!-- matplotlib_pyplot&#45;&gt;matplotlib_patheffects -->
<g id="edge16" class="edge">
<title>matplotlib_pyplot&#45;&gt;matplotlib_patheffects</title><style>.edge>path:hover{stroke-width:8}</style>
<path fill="none" stroke="black" d="M245.03,-695.12C259.56,-704.76 275.91,-718.65 284,-735.98 294.6,-758.71 284.83,-786.2 273.86,-806.38"/>
<polygon fill="#000000" stroke="black" points="270.79,-804.69 268.8,-815.09 276.85,-808.2 270.79,-804.69"/>
</g>
<!-- matplotlib_pyplot&#45;&gt;numpy -->
<g id="edge26" class="edge">
<title>matplotlib_pyplot&#45;&gt;numpy</title><style>.edge>path:hover{stroke-width:8}</style>
<path fill="none" stroke="black" d="M137,-864.84C204.69,-901.97 296.89,-909.3 347.65,-910.26"/>
<polygon fill="#000000" stroke="black" points="347.79,-913.76 357.83,-910.38 347.87,-906.76 347.79,-913.76"/>
</g>
<!-- sklearn -->
<g id="node7" class="node">
<title>sklearn</title><style>.edge>path:hover{stroke-width:8}</style>
<ellipse fill="#dd187a" stroke="black" cx="830" cy="-488.35" rx="28.01" ry="18"/>
<text text-anchor="middle" x="830" y="-485.85" font-family="Helvetica,sans-Serif" font-size="10.00" fill="#ffffff">sklearn</text>
</g>
<!-- sklearn&#45;&gt;numpy -->
<g id="edge31" class="edge">
<title>sklearn&#45;&gt;numpy</title><style>.edge>path:hover{stroke-width:8}</style>
<path fill="none" stroke="black" d="M792,-517.56C732.74,-557.84 655,-530.9 655,-602.56 655,-602.56 655,-602.56 655,-758.2 655,-863.76 496.18,-896.6 422.15,-906.17"/>
<polygon fill="#000000" stroke="black" points="421.38,-902.74 411.88,-907.42 422.23,-909.69 421.38,-902.74"/>
</g>
<!-- sklearn_cluster -->
<g id="node8" class="node">
<title>sklearn_cluster</title><style>.edge>path:hover{stroke-width:8}</style>
<ellipse fill="#b65385" stroke="black" cx="530" cy="-488.35" rx="36.13" ry="21.43"/>
<text text-anchor="middle" x="530" y="-491.35" font-family="Helvetica,sans-Serif" font-size="10.00" fill="#ffffff">sklearn.</text>
<text text-anchor="middle" x="530" y="-480.35" font-family="Helvetica,sans-Serif" font-size="10.00" fill="#ffffff">cluster</text>
</g>
<!-- sklearn_metrics -->
<g id="node9" class="node">
<title>sklearn_metrics</title><style>.edge>path:hover{stroke-width:8}</style>
<ellipse fill="#b83d7a" stroke="black" cx="620" cy="-488.35" rx="36.13" ry="21.43"/>
<text text-anchor="middle" x="620" y="-491.35" font-family="Helvetica,sans-Serif" font-size="10.00" fill="#ffffff">sklearn.</text>
<text text-anchor="middle" x="620" y="-480.35" font-family="Helvetica,sans-Serif" font-size="10.00" fill="#ffffff">metrics</text>
</g>
<!-- sklearn_preprocessing -->
<g id="node10" class="node">
<title>sklearn_preprocessing</title><style>.edge>path:hover{stroke-width:8}</style>
<ellipse fill="#b65385" stroke="black" cx="729" cy="-488.35" rx="54.39" ry="21.43"/>
<text text-anchor="middle" x="729" y="-491.35" font-family="Helvetica,sans-Serif" font-size="10.00" fill="#ffffff">sklearn.</text>
<text text-anchor="middle" x="729" y="-480.35" font-family="Helvetica,sans-Serif" font-size="10.00" fill="#ffffff">preprocessing</text>
</g>
<!-- pyiomica -->
<g id="node11" class="node">
<title>pyiomica</title><style>.edge>path:hover{stroke-width:8}</style>
<ellipse fill="#067ff9" stroke="black" cx="1537" cy="-256.49" rx="32.93" ry="18"/>
<text text-anchor="middle" x="1537" y="-253.99" font-family="Helvetica,sans-Serif" font-size="10.00" fill="#ffffff">pyiomica</text>
</g>
<!-- pyiomica_globalVariables -->
<g id="node18" class="node">
<title>pyiomica_globalVariables</title><style>.edge>path:hover{stroke-width:8}</style>
<ellipse fill="#04519f" stroke="black" cx="1241" cy="-334.92" rx="58.88" ry="21.43"/>
<text text-anchor="middle" x="1241" y="-337.92" font-family="Helvetica,sans-Serif" font-size="10.00" fill="#ffffff">pyiomica.</text>
<text text-anchor="middle" x="1241" y="-326.92" font-family="Helvetica,sans-Serif" font-size="10.00" fill="#ffffff">globalVariables</text>
</g>
<!-- pyiomica&#45;&gt;pyiomica_globalVariables -->
<g id="edge44" class="edge">
<title>pyiomica&#45;&gt;pyiomica_globalVariables</title><style>.edge>path:hover{stroke-width:8}</style>
<path fill="none" stroke="black" d="M1514.3,-269.59C1508.15,-272.54 1501.42,-275.48 1495,-277.71 1431.78,-299.58 1356.68,-314.96 1304.62,-324.04"/>
<polygon fill="#067ff9" stroke="black" points="1303.79,-320.63 1294.52,-325.77 1304.97,-327.53 1303.79,-320.63"/>
</g>
<!-- pyiomica_categorizationFunctions -->
<g id="node12" class="node">
<title>pyiomica_categorizationFunctions</title><style>.edge>path:hover{stroke-width:8}</style>
<ellipse fill="#375c81" stroke="black" cx="1139" cy="-21.21" rx="84.71" ry="21.43"/>
<text text-anchor="middle" x="1139" y="-24.21" font-family="Helvetica,sans-Serif" font-size="10.00" fill="#ffffff">pyiomica.</text>
<text text-anchor="middle" x="1139" y="-13.21" font-family="Helvetica,sans-Serif" font-size="10.00" fill="#ffffff">categorizationFunctions</text>
</g>
<!-- pyiomica_clusteringFunctions -->
<g id="node13" class="node">
<title>pyiomica_clusteringFunctions</title><style>.edge>path:hover{stroke-width:8}</style>
<ellipse fill="#1e4c7a" stroke="black" cx="681" cy="-178.07" rx="71.34" ry="21.43"/>
<text text-anchor="middle" x="681" y="-181.07" font-family="Helvetica,sans-Serif" font-size="10.00" fill="#ffffff">pyiomica.</text>
<text text-anchor="middle" x="681" y="-170.07" font-family="Helvetica,sans-Serif" font-size="10.00" fill="#ffffff">clusteringFunctions</text>
</g>
<!-- pyiomica_categorizationFunctions&#45;&gt;pyiomica_clusteringFunctions -->
<g id="edge33" class="edge">
<title>pyiomica_categorizationFunctions&#45;&gt;pyiomica_clusteringFunctions</title><style>.edge>path:hover{stroke-width:8}</style>
<path fill="none" stroke="black" d="M1090.42,-38.64C1004.57,-67.67 826.58,-127.84 736.22,-158.4"/>
<polygon fill="#375c81" stroke="black" points="735.05,-155.1 726.7,-161.61 737.29,-161.73 735.05,-155.1"/>
</g>
<!-- pyiomica_coreFunctions -->
<g id="node14" class="node">
<title>pyiomica_coreFunctions</title><style>.edge>path:hover{stroke-width:8}</style>
<ellipse fill="#197fe6" stroke="black" cx="1033" cy="-256.49" rx="55.31" ry="21.43"/>
<text text-anchor="middle" x="1033" y="-259.49" font-family="Helvetica,sans-Serif" font-size="10.00" fill="#ffffff">pyiomica.</text>
<text text-anchor="middle" x="1033" y="-248.49" font-family="Helvetica,sans-Serif" font-size="10.00" fill="#ffffff">coreFunctions</text>
</g>
<!-- pyiomica_categorizationFunctions&#45;&gt;pyiomica_coreFunctions -->
<g id="edge35" class="edge">
<title>pyiomica_categorizationFunctions&#45;&gt;pyiomica_coreFunctions</title><style>.edge>path:hover{stroke-width:8}</style>
<path fill="none" stroke="black" d="M1123.54,-42.53C1104.91,-67.95 1073.88,-113.44 1056,-156.85 1046.92,-178.9 1041,-205.28 1037.45,-225.2"/>
<polygon fill="#375c81" stroke="black" points="1033.96,-224.81 1035.76,-235.26 1040.87,-225.98 1033.96,-224.81"/>
</g>
<!-- pyiomica_dataStorage -->
<g id="node15" class="node">
<title>pyiomica_dataStorage</title><style>.edge>path:hover{stroke-width:8}</style>
<ellipse fill="#2b6bac" stroke="black" cx="1432" cy="-99.64" rx="48.58" ry="21.43"/>
<text text-anchor="middle" x="1432" y="-102.64" font-family="Helvetica,sans-Serif" font-size="10.00" fill="#ffffff">pyiomica.</text>
<text text-anchor="middle" x="1432" y="-91.64" font-family="Helvetica,sans-Serif" font-size="10.00" fill="#ffffff">dataStorage</text>
</g>
<!-- pyiomica_categorizationFunctions&#45;&gt;pyiomica_dataStorage -->
<g id="edge39" class="edge">
<title>pyiomica_categorizationFunctions&#45;&gt;pyiomica_dataStorage</title><style>.edge>path:hover{stroke-width:8}</style>
<path fill="none" stroke="black" d="M1200.32,-35.96C1246.84,-46.68 1312.23,-62.4 1369,-78.43 1373.99,-79.83 1379.17,-81.37 1384.33,-82.95"/>
<polygon fill="#375c81" stroke="black" points="1383.56,-86.38 1394.15,-86.02 1385.65,-79.7 1383.56,-86.38"/>
</g>
<!-- pyiomica_extendedDataFrame -->
<g id="node17" class="node">
<title>pyiomica_extendedDataFrame</title><style>.edge>path:hover{stroke-width:8}</style>
<ellipse fill="#1e66ae" stroke="black" cx="1139" cy="-178.07" rx="73.58" ry="21.43"/>
<text text-anchor="middle" x="1139" y="-181.07" font-family="Helvetica,sans-Serif" font-size="10.00" fill="#ffffff">pyiomica.</text>
<text text-anchor="middle" x="1139" y="-170.07" font-family="Helvetica,sans-Serif" font-size="10.00" fill="#ffffff">extendedDataFrame</text>
</g>
<!-- pyiomica_categorizationFunctions&#45;&gt;pyiomica_extendedDataFrame -->
<g id="edge41" class="edge">
<title>pyiomica_categorizationFunctions&#45;&gt;pyiomica_extendedDataFrame</title><style>.edge>path:hover{stroke-width:8}</style>
<path fill="none" stroke="black" d="M1139,-42.46C1139,-69 1139,-115.82 1139,-146.64"/>
<polygon fill="#375c81" stroke="black" points="1135.5,-146.82 1139,-156.82 1142.5,-146.82 1135.5,-146.82"/>
</g>
<!-- pyiomica_categorizationFunctions&#45;&gt;pyiomica_globalVariables -->
<g id="edge45" class="edge">
<title>pyiomica_categorizationFunctions&#45;&gt;pyiomica_globalVariables</title><style>.edge>path:hover{stroke-width:8}</style>
<path fill="none" stroke="black" d="M1173.98,-40.74C1190.98,-50.66 1211.11,-63.83 1227,-78.43 1291.63,-137.81 1318.85,-152.14 1347,-235.28 1353.05,-253.14 1356.72,-261.55 1347,-277.71 1335.79,-296.34 1316.09,-309.13 1296.69,-317.74"/>
<polygon fill="#375c81" stroke="black" points="1295.14,-314.59 1287.23,-321.63 1297.81,-321.06 1295.14,-314.59"/>
</g>
<!-- pyiomica_utilityFunctions -->
<g id="node19" class="node">
<title>pyiomica_utilityFunctions</title><style>.edge>path:hover{stroke-width:8}</style>
<ellipse fill="#067ff9" stroke="black" cx="1279" cy="-256.49" rx="58.88" ry="21.43"/>
<text text-anchor="middle" x="1279" y="-259.49" font-family="Helvetica,sans-Serif" font-size="10.00" fill="#ffffff">pyiomica.</text>
<text text-anchor="middle" x="1279" y="-248.49" font-family="Helvetica,sans-Serif" font-size="10.00" fill="#ffffff">utilityFunctions</text>
</g>
<!-- pyiomica_categorizationFunctions&#45;&gt;pyiomica_utilityFunctions -->
<g id="edge55" class="edge">
<title>pyiomica_categorizationFunctions&#45;&gt;pyiomica_utilityFunctions</title><style>.edge>path:hover{stroke-width:8}</style>
<path fill="none" stroke="black" d="M1160.81,-41.95C1186.57,-66.45 1228.95,-110.67 1253,-156.85 1264.22,-178.39 1270.88,-205.15 1274.64,-225.36"/>
<polygon fill="#375c81" stroke="black" points="1271.2,-226.01 1276.36,-235.27 1278.1,-224.82 1271.2,-226.01"/>
</g>
<!-- pyiomica_visualizationFunctions -->
<g id="node22" class="node">
<title>pyiomica_visualizationFunctions</title><style>.edge>path:hover{stroke-width:8}</style>
<ellipse fill="#264c73" stroke="black" cx="443" cy="-99.64" rx="79.39" ry="21.43"/>
<text text-anchor="middle" x="443" y="-102.64" font-family="Helvetica,sans-Serif" font-size="10.00" fill="#ffffff">pyiomica.</text>
<text text-anchor="middle" x="443" y="-91.64" font-family="Helvetica,sans-Serif" font-size="10.00" fill="#ffffff">visualizationFunctions</text>
</g>
<!-- pyiomica_categorizationFunctions&#45;&gt;pyiomica_visualizationFunctions -->
<g id="edge65" class="edge">
<title>pyiomica_categorizationFunctions&#45;&gt;pyiomica_visualizationFunctions</title><style>.edge>path:hover{stroke-width:8}</style>
<path fill="none" stroke="black" d="M1062.52,-30.61C930.49,-45.11 660.92,-74.71 525.09,-89.63"/>
<polygon fill="#375c81" stroke="black" points="524.71,-86.15 515.15,-90.72 525.47,-93.1 524.71,-86.15"/>
</g>
<!-- pyiomica_clusteringFunctions&#45;&gt;sklearn -->
<g id="edge70" class="edge">
<title>pyiomica_clusteringFunctions&#45;&gt;sklearn</title><style>.edge>path:hover{stroke-width:8}</style>
<path fill="none" stroke="black" d="M678.32,-199.3C676.37,-219.65 675.39,-251.68 684,-277.71 689.57,-294.54 745.17,-372.17 786.11,-428.06"/>
<polygon fill="#1e4c7a" stroke="black" points="783.3,-430.14 792.04,-436.14 788.94,-426 783.3,-430.14"/>
</g>
<!-- pyiomica_clusteringFunctions&#45;&gt;sklearn_cluster -->
<g id="edge73" class="edge">
<title>pyiomica_clusteringFunctions&#45;&gt;sklearn_cluster</title><style>.edge>path:hover{stroke-width:8}</style>
<path fill="none" stroke="black" d="M609.71,-179.74C516.03,-182.32 359.14,-193.02 323,-235.28 271.93,-295 320.79,-346.99 407,-428.13 426.66,-446.63 453.17,-460.39 476.54,-469.96"/>
<polygon fill="#1e4c7a" stroke="black" points="475.41,-473.28 486,-473.69 477.98,-466.77 475.41,-473.28"/>
</g>
<!-- pyiomica_clusteringFunctions&#45;&gt;sklearn_metrics -->
<g id="edge74" class="edge">
<title>pyiomica_clusteringFunctions&#45;&gt;sklearn_metrics</title><style>.edge>path:hover{stroke-width:8}</style>
<path fill="none" stroke="black" d="M664.52,-198.86C656.94,-209.1 648.62,-222.16 644,-235.28 622.02,-297.7 617.59,-373.86 617.67,-426.03"/>
<polygon fill="#1e4c7a" stroke="black" points="614.17,-426.16 617.75,-436.13 621.17,-426.11 614.17,-426.16"/>
</g>
<!-- pyiomica_clusteringFunctions&#45;&gt;pyiomica_coreFunctions -->
<g id="edge36" class="edge">
<title>pyiomica_clusteringFunctions&#45;&gt;pyiomica_coreFunctions</title><style>.edge>path:hover{stroke-width:8}</style>
<path fill="none" stroke="black" d="M742.41,-188.98C801.02,-198.92 891.62,-215.57 969,-235.28 973.56,-236.44 978.27,-237.74 982.98,-239.1"/>
<polygon fill="#1e4c7a" stroke="black" points="981.99,-242.46 992.57,-241.96 983.99,-235.75 981.99,-242.46"/>
</g>
<!-- pyiomica_clusteringFunctions&#45;&gt;pyiomica_globalVariables -->
<g id="edge46" class="edge">
<title>pyiomica_clusteringFunctions&#45;&gt;pyiomica_globalVariables</title><style>.edge>path:hover{stroke-width:8}</style>
<path fill="none" stroke="black" d="M681.85,-199.3C683.99,-222.19 691.2,-258.74 715,-277.71 750.14,-305.69 1038.81,-323.74 1172.95,-330.69"/>
<polygon fill="#1e4c7a" stroke="black" points="1172.95,-334.19 1183.11,-331.21 1173.3,-327.2 1172.95,-334.19"/>
</g>
<!-- pyiomica_clusteringFunctions&#45;&gt;pyiomica_utilityFunctions -->
<g id="edge56" class="edge">
<title>pyiomica_clusteringFunctions&#45;&gt;pyiomica_utilityFunctions</title><style>.edge>path:hover{stroke-width:8}</style>
<path fill="none" stroke="black" d="M745.56,-187.32C860.48,-202 1099.23,-232.52 1214.27,-247.22"/>
<polygon fill="#1e4c7a" stroke="black" points="1213.97,-250.71 1224.34,-248.51 1214.86,-243.77 1213.97,-250.71"/>
</g>
<!-- pyiomica_visibilityGraphAuxiliaryFunctions -->
<g id="node20" class="node">
<title>pyiomica_visibilityGraphAuxiliaryFunctions</title><style>.edge>path:hover{stroke-width:8}</style>
<ellipse fill="#317ac4" stroke="black" cx="443" cy="-256.49" rx="111.03" ry="21.43"/>
<text text-anchor="middle" x="443" y="-259.49" font-family="Helvetica,sans-Serif" font-size="10.00" fill="#ffffff">pyiomica.</text>
<text text-anchor="middle" x="443" y="-248.49" font-family="Helvetica,sans-Serif" font-size="10.00" fill="#ffffff">visibilityGraphAuxiliaryFunctions</text>
</g>
<!-- pyiomica_clusteringFunctions&#45;&gt;pyiomica_visibilityGraphAuxiliaryFunctions -->
<g id="edge61" class="edge">
<title>pyiomica_clusteringFunctions&#45;&gt;pyiomica_visibilityGraphAuxiliaryFunctions</title><style>.edge>path:hover{stroke-width:8}</style>
<path fill="none" stroke="black" d="M633.98,-194.17C597.81,-205.78 547.43,-221.96 507.5,-234.78"/>
<polygon fill="#1e4c7a" stroke="black" points="506.3,-231.49 497.85,-237.88 508.44,-238.15 506.3,-231.49"/>
</g>
<!-- pyiomica_visibilityGraphCommunityDetection -->
<g id="node21" class="node">
<title>pyiomica_visibilityGraphCommunityDetection</title><style>.edge>path:hover{stroke-width:8}</style>
<ellipse fill="#337fcc" stroke="black" cx="842" cy="-256.49" rx="118.17" ry="21.43"/>
<text text-anchor="middle" x="842" y="-259.49" font-family="Helvetica,sans-Serif" font-size="10.00" fill="#ffffff">pyiomica.</text>
<text text-anchor="middle" x="842" y="-248.49" font-family="Helvetica,sans-Serif" font-size="10.00" fill="#ffffff">visibilityGraphCommunityDetection</text>
</g>
<!-- pyiomica_clusteringFunctions&#45;&gt;pyiomica_visibilityGraphCommunityDetection -->
<g id="edge63" class="edge">
<title>pyiomica_clusteringFunctions&#45;&gt;pyiomica_visibilityGraphCommunityDetection</title><style>.edge>path:hover{stroke-width:8}</style>
<path fill="none" stroke="black" d="M717.53,-196.41C739.83,-206.99 768.61,-220.66 792.88,-232.18"/>
<polygon fill="#1e4c7a" stroke="black" points="791.41,-235.35 801.94,-236.48 794.41,-229.03 791.41,-235.35"/>
</g>
<!-- scipy -->
<g id="node31" class="node">
<title>scipy</title><style>.edge>path:hover{stroke-width:8}</style>
<polygon fill="#ef06ef" stroke="black" points="350,-506.35 347,-510.35 326,-510.35 323,-506.35 296,-506.35 296,-470.35 350,-470.35 350,-506.35"/>
<text text-anchor="middle" x="323" y="-485.85" font-family="Helvetica,sans-Serif" font-size="10.00" fill="#ffffff">scipy</text>
</g>
<!-- pyiomica_clusteringFunctions&#45;&gt;scipy -->
<g id="edge68" class="edge">
<title>pyiomica_clusteringFunctions&#45;&gt;scipy</title><style>.edge>path:hover{stroke-width:8}</style>
<path fill="none" stroke="black" d="M609.4,-178.9C509.87,-180.36 337.43,-189.64 298,-235.28 242.48,-299.55 284.95,-410.3 309.17,-460.83"/>
<polygon fill="#1e4c7a" stroke="black" points="306.18,-462.67 313.73,-470.1 312.46,-459.58 306.18,-462.67"/>
</g>
<!-- pyiomica_coreFunctions&#45;&gt;pyiomica_globalVariables -->
<g id="edge47" class="edge">
<title>pyiomica_coreFunctions&#45;&gt;pyiomica_globalVariables</title><style>.edge>path:hover{stroke-width:8}</style>
<path fill="none" stroke="black" d="M1071.64,-271.69C1105.5,-284.13 1154.91,-302.29 1191.63,-315.78"/>
<polygon fill="#197fe6" stroke="black" points="1190.56,-319.11 1201.16,-319.28 1192.98,-312.54 1190.56,-319.11"/>
</g>
<!-- pyiomica_dataStorage&#45;&gt;pyiomica_extendedDataFrame -->
<g id="edge42" class="edge">
<title>pyiomica_dataStorage&#45;&gt;pyiomica_extendedDataFrame</title><style>.edge>path:hover{stroke-width:8}</style>
<path fill="none" stroke="black" d="M1390.95,-111.35C1341.85,-124.16 1259.12,-145.73 1201.93,-160.65"/>
<polygon fill="#2b6bac" stroke="black" points="1200.71,-157.35 1191.91,-163.26 1202.47,-164.13 1200.71,-157.35"/>
</g>
<!-- pyiomica_dataStorage&#45;&gt;pyiomica_globalVariables -->
<g id="edge48" class="edge">
<title>pyiomica_dataStorage&#45;&gt;pyiomica_globalVariables</title><style>.edge>path:hover{stroke-width:8}</style>
<path fill="none" stroke="black" d="M1431.56,-120.88C1429.72,-156.91 1420.87,-232.59 1380,-277.71 1359.84,-299.96 1329.64,-313.57 1302.52,-321.81"/>
<polygon fill="#2b6bac" stroke="black" points="1301.36,-318.5 1292.7,-324.61 1303.28,-325.23 1301.36,-318.5"/>
</g>
<!-- pyiomica_dataStorage&#45;&gt;pyiomica_utilityFunctions -->
<g id="edge57" class="edge">
<title>pyiomica_dataStorage&#45;&gt;pyiomica_utilityFunctions</title><style>.edge>path:hover{stroke-width:8}</style>
<path fill="none" stroke="black" d="M1413.54,-119.32C1386.58,-146.61 1336.28,-197.52 1305.41,-228.77"/>
<polygon fill="#2b6bac" stroke="black" points="1302.54,-226.69 1298,-236.26 1307.52,-231.61 1302.54,-226.69"/>
</g>
<!-- h5py -->
<g id="node24" class="node">
<title>h5py</title><style>.edge>path:hover{stroke-width:8}</style>
<ellipse fill="#c08040" stroke="black" cx="1459" cy="-256.49" rx="27" ry="18"/>
<text text-anchor="middle" x="1459" y="-253.99" font-family="Helvetica,sans-Serif" font-size="10.00" fill="#000000">h5py</text>
</g>
<!-- pyiomica_dataStorage&#45;&gt;h5py -->
<g id="edge2" class="edge">
<title>pyiomica_dataStorage&#45;&gt;h5py</title><style>.edge>path:hover{stroke-width:8}</style>
<path fill="none" stroke="black" d="M1435.53,-120.88C1440.34,-148.46 1448.96,-197.89 1454.31,-228.57"/>
<polygon fill="#2b6bac" stroke="black" points="1450.88,-229.32 1456.05,-238.57 1457.78,-228.12 1450.88,-229.32"/>
</g>
<!-- pyiomica_enrichmentAnalyses -->
<g id="node16" class="node">
<title>pyiomica_enrichmentAnalyses</title><style>.edge>path:hover{stroke-width:8}</style>
<ellipse fill="#3d668f" stroke="black" cx="1582" cy="-21.21" rx="74.49" ry="21.43"/>
<text text-anchor="middle" x="1582" y="-24.21" font-family="Helvetica,sans-Serif" font-size="10.00" fill="#ffffff">pyiomica.</text>
<text text-anchor="middle" x="1582" y="-13.21" font-family="Helvetica,sans-Serif" font-size="10.00" fill="#ffffff">enrichmentAnalyses</text>
</g>
<!-- pyiomica_enrichmentAnalyses&#45;&gt;pyiomica_dataStorage -->
<g id="edge40" class="edge">
<title>pyiomica_enrichmentAnalyses&#45;&gt;pyiomica_dataStorage</title><style>.edge>path:hover{stroke-width:8}</style>
<path fill="none" stroke="black" d="M1546.83,-40.13C1524.36,-51.58 1495.16,-66.46 1471.83,-78.35"/>
<polygon fill="#3d668f" stroke="black" points="1470.2,-75.25 1462.88,-82.91 1473.38,-81.48 1470.2,-75.25"/>
</g>
<!-- pyiomica_enrichmentAnalyses&#45;&gt;pyiomica_globalVariables -->
<g id="edge49" class="edge">
<title>pyiomica_enrichmentAnalyses&#45;&gt;pyiomica_globalVariables</title><style>.edge>path:hover{stroke-width:8}</style>
<path fill="none" stroke="black" d="M1608.49,-41.1C1619.98,-50.84 1632.31,-63.76 1639,-78.43 1677.39,-162.58 1659.19,-231.6 1579,-277.71 1533.9,-303.63 1392.67,-320.37 1307.71,-328.37"/>
<polygon fill="#3d668f" stroke="black" points="1307.27,-324.9 1297.64,-329.31 1307.92,-331.87 1307.27,-324.9"/>
</g>
<!-- pyiomica_enrichmentAnalyses&#45;&gt;pyiomica_utilityFunctions -->
<g id="edge58" class="edge">
<title>pyiomica_enrichmentAnalyses&#45;&gt;pyiomica_utilityFunctions</title><style>.edge>path:hover{stroke-width:8}</style>
<path fill="none" stroke="black" d="M1596.32,-42.06C1620.22,-77.79 1661.93,-153.48 1623,-199.28 1618.47,-204.61 1440.93,-231.58 1342.73,-246.14"/>
<polygon fill="#3d668f" stroke="black" points="1341.99,-242.71 1332.61,-247.64 1343.02,-249.63 1341.99,-242.71"/>
</g>
<!-- pymysql -->
<g id="node29" class="node">
<title>pymysql</title><style>.edge>path:hover{stroke-width:8}</style>
<ellipse fill="#4040c0" stroke="black" cx="1501" cy="-178.07" rx="31.4" ry="18"/>
<text text-anchor="middle" x="1501" y="-175.57" font-family="Helvetica,sans-Serif" font-size="10.00" fill="#ffffff">pymysql</text>
</g>
<!-- pyiomica_enrichmentAnalyses&#45;&gt;pymysql -->
<g id="edge66" class="edge">
<title>pyiomica_enrichmentAnalyses&#45;&gt;pymysql</title><style>.edge>path:hover{stroke-width:8}</style>
<path fill="none" stroke="black" d="M1571.41,-42.46C1556.78,-70.42 1530.4,-120.87 1514.41,-151.43"/>
<polygon fill="#3d668f" stroke="black" points="1511.15,-150.12 1509.61,-160.6 1517.35,-153.36 1511.15,-150.12"/>
</g>
<!-- requests -->
<g id="node30" class="node">
<title>requests</title><style>.edge>path:hover{stroke-width:8}</style>
<ellipse fill="#7f40c0" stroke="black" cx="1582" cy="-178.07" rx="31.58" ry="18"/>
<text text-anchor="middle" x="1582" y="-175.57" font-family="Helvetica,sans-Serif" font-size="10.00" fill="#ffffff">requests</text>
</g>
<!-- pyiomica_enrichmentAnalyses&#45;&gt;requests -->
<g id="edge67" class="edge">
<title>pyiomica_enrichmentAnalyses&#45;&gt;requests</title><style>.edge>path:hover{stroke-width:8}</style>
<path fill="none" stroke="black" d="M1582,-42.46C1582,-69.88 1582,-118.94 1582,-149.65"/>
<polygon fill="#3d668f" stroke="black" points="1578.5,-149.68 1582,-159.68 1585.5,-149.68 1578.5,-149.68"/>
</g>
<!-- pyiomica_extendedDataFrame&#45;&gt;sklearn -->
<g id="edge71" class="edge">
<title>pyiomica_extendedDataFrame&#45;&gt;sklearn</title><style>.edge>path:hover{stroke-width:8}</style>
<path fill="none" stroke="black" d="M1142.15,-199.4C1148.25,-247.02 1155.97,-366.41 1092,-428.13 1060.29,-458.73 932.62,-476.42 867.95,-483.59"/>
<polygon fill="#1e66ae" stroke="black" points="872.99,-476.72 866,-484.69 876.43,-482.82 872.99,-476.72"/>
</g>
<!-- pyiomica_extendedDataFrame&#45;&gt;sklearn_preprocessing -->
<g id="edge75" class="edge">
<title>pyiomica_extendedDataFrame&#45;&gt;sklearn_preprocessing</title><style>.edge>path:hover{stroke-width:8}</style>
<path fill="none" stroke="black" d="M1134.66,-199.45C1129.13,-221.12 1117.73,-255.3 1097,-277.71 995.87,-387.04 923.93,-354.51 801.52,-430.7"/>
<polygon fill="#1e66ae" stroke="black" points="799.55,-427.81 793,-436.13 803.31,-433.71 799.55,-427.81"/>
</g>
<!-- pyiomica_extendedDataFrame&#45;&gt;pyiomica_coreFunctions -->
<g id="edge37" class="edge">
<title>pyiomica_extendedDataFrame&#45;&gt;pyiomica_coreFunctions</title><style>.edge>path:hover{stroke-width:8}</style>
<path fill="none" stroke="black" d="M1112.8,-197.96C1098.86,-208.01 1081.56,-220.48 1066.64,-231.24"/>
<polygon fill="#1e66ae" stroke="black" points="1064.24,-228.66 1058.17,-237.34 1068.33,-234.33 1064.24,-228.66"/>
</g>
<!-- pyiomica_extendedDataFrame&#45;&gt;pyiomica_globalVariables -->
<g id="edge50" class="edge">
<title>pyiomica_extendedDataFrame&#45;&gt;pyiomica_globalVariables</title><style>.edge>path:hover{stroke-width:8}</style>
<path fill="none" stroke="black" d="M1152.13,-198.99C1169.95,-226.06 1201.92,-274.59 1222.26,-305.47"/>
<polygon fill="#1e66ae" stroke="black" points="1219.5,-307.64 1227.92,-314.07 1225.35,-303.79 1219.5,-307.64"/>
</g>
<!-- pyiomica_extendedDataFrame&#45;&gt;pyiomica_utilityFunctions -->
<g id="edge59" class="edge">
<title>pyiomica_extendedDataFrame&#45;&gt;pyiomica_utilityFunctions</title><style>.edge>path:hover{stroke-width:8}</style>
<path fill="none" stroke="black" d="M1172.18,-197.18C1192.04,-208.02 1217.43,-221.88 1238.48,-233.37"/>
<polygon fill="#1e66ae" stroke="black" points="1237.05,-236.58 1247.5,-238.3 1240.4,-230.43 1237.05,-236.58"/>
</g>
<!-- pyiomica_globalVariables&#45;&gt;sklearn -->
<g id="edge72" class="edge">
<title>pyiomica_globalVariables&#45;&gt;sklearn</title><style>.edge>path:hover{stroke-width:8}</style>
<path fill="none" stroke="black" d="M1227.74,-355.86C1211.18,-380.16 1183.17,-419.09 1168,-428.13 1155.09,-435.82 952.44,-468.19 867.26,-481.55"/>
<polygon fill="#04519f" stroke="black" points="873.68,-474.81 866,-482.12 876.55,-481.19 873.68,-474.81"/>
</g>
<!-- appdirs -->
<g id="node23" class="node">
<title>appdirs</title><style>.edge>path:hover{stroke-width:8}</style>
<ellipse fill="#b65353" stroke="black" cx="1178" cy="-488.35" rx="28.01" ry="18"/>
<text text-anchor="middle" x="1178" y="-485.85" font-family="Helvetica,sans-Serif" font-size="10.00" fill="#ffffff">appdirs</text>
</g>
<!-- pyiomica_globalVariables&#45;&gt;appdirs -->
<g id="edge1" class="edge">
<title>pyiomica_globalVariables&#45;&gt;appdirs</title><style>.edge>path:hover{stroke-width:8}</style>
<path fill="none" stroke="black" d="M1233.81,-356.25C1227.03,-375.06 1216.39,-403.71 1206,-428.13 1201.28,-439.23 1195.66,-451.3 1190.7,-461.63"/>
<polygon fill="#04519f" stroke="black" points="1187.41,-460.39 1186.2,-470.91 1193.71,-463.44 1187.41,-460.39"/>
</g>
<!-- networkx -->
<g id="node25" class="node">
<title>networkx</title><style>.edge>path:hover{stroke-width:8}</style>
<ellipse fill="#80c040" stroke="black" cx="1257" cy="-488.35" rx="32.93" ry="18"/>
<text text-anchor="middle" x="1257" y="-485.85" font-family="Helvetica,sans-Serif" font-size="10.00" fill="#000000">networkx</text>
</g>
<!-- pyiomica_globalVariables&#45;&gt;networkx -->
<g id="edge20" class="edge">
<title>pyiomica_globalVariables&#45;&gt;networkx</title><style>.edge>path:hover{stroke-width:8}</style>
<path fill="none" stroke="black" d="M1243.16,-356.34C1245.98,-383.09 1250.95,-430.07 1254.1,-459.91"/>
<polygon fill="#04519f" stroke="black" points="1250.64,-460.48 1255.17,-470.05 1257.6,-459.74 1250.64,-460.48"/>
</g>
<!-- pyiomica_globalVariables&#45;&gt;numpy -->
<g id="edge28" class="edge">
<title>pyiomica_globalVariables&#45;&gt;numpy</title><style>.edge>path:hover{stroke-width:8}</style>
<path fill="none" stroke="black" d="M1276.4,-352.09C1321.03,-375.2 1392,-422.19 1392,-487.35 1392,-487.35 1392,-487.35 1392,-758.2 1392,-858.3 603.79,-899.97 422.06,-908.25"/>
<polygon fill="#04519f" stroke="black" points="421.77,-904.76 411.93,-908.7 422.08,-911.75 421.77,-904.76"/>
</g>
<!-- pandas -->
<g id="node28" class="node">
<title>pandas</title><style>.edge>path:hover{stroke-width:8}</style>
<ellipse fill="#3db8b8" stroke="black" cx="1336" cy="-488.35" rx="28.01" ry="18"/>
<text text-anchor="middle" x="1336" y="-485.85" font-family="Helvetica,sans-Serif" font-size="10.00" fill="#000000">pandas</text>
</g>
<!-- pyiomica_globalVariables&#45;&gt;pandas -->
<g id="edge32" class="edge">
<title>pyiomica_globalVariables&#45;&gt;pandas</title><style>.edge>path:hover{stroke-width:8}</style>
<path fill="none" stroke="black" d="M1253.42,-355.72C1270.65,-383.18 1301.79,-432.82 1320.51,-462.66"/>
<polygon fill="#04519f" stroke="black" points="1317.62,-464.63 1325.9,-471.24 1323.55,-460.91 1317.62,-464.63"/>
</g>
<!-- pyiomica_globalVariables&#45;&gt;scipy -->
<g id="edge69" class="edge">
<title>pyiomica_globalVariables&#45;&gt;scipy</title><style>.edge>path:hover{stroke-width:8}</style>
<path fill="none" stroke="black" d="M1183.73,-339.93C1056.34,-349.64 740.37,-377.97 482,-436.13 439.37,-445.73 391.83,-461.77 359.94,-473.35"/>
<polygon fill="#04519f" stroke="black" points="358.34,-470.21 350.16,-476.94 360.75,-476.78 358.34,-470.21"/>
</g>
<!-- pyiomica_utilityFunctions&#45;&gt;pyiomica_globalVariables -->
<g id="edge51" class="edge">
<title>pyiomica_utilityFunctions&#45;&gt;pyiomica_globalVariables</title><style>.edge>path:hover{stroke-width:8}</style>
<path fill="none" stroke="black" d="M1269.02,-277.57C1264.87,-285.91 1259.98,-295.75 1255.45,-304.85"/>
<polygon fill="#067ff9" stroke="black" points="1252.24,-303.46 1250.92,-313.97 1258.5,-306.58 1252.24,-303.46"/>
</g>
<!-- pyiomica_visibilityGraphAuxiliaryFunctions&#45;&gt;pyiomica_globalVariables -->
<g id="edge52" class="edge">
<title>pyiomica_visibilityGraphAuxiliaryFunctions&#45;&gt;pyiomica_globalVariables</title><style>.edge>path:hover{stroke-width:8}</style>
<path fill="none" stroke="black" d="M522.55,-271.3C537.62,-273.64 553.27,-275.9 568,-277.71 788.51,-304.7 1051.28,-322.53 1172.96,-329.97"/>
<polygon fill="#317ac4" stroke="black" points="1173.04,-333.48 1183.23,-330.6 1173.46,-326.5 1173.04,-333.48"/>
</g>
<!-- numba -->
<g id="node26" class="node">
<title>numba</title><style>.edge>path:hover{stroke-width:8}</style>
<ellipse fill="#40c040" stroke="black" cx="443" cy="-410.13" rx="27.16" ry="18"/>
<text text-anchor="middle" x="443" y="-407.63" font-family="Helvetica,sans-Serif" font-size="10.00" fill="#000000">numba</text>
</g>
<!-- pyiomica_visibilityGraphAuxiliaryFunctions&#45;&gt;numba -->
<g id="edge21" class="edge">
<title>pyiomica_visibilityGraphAuxiliaryFunctions&#45;&gt;numba</title><style>.edge>path:hover{stroke-width:8}</style>
<path fill="none" stroke="black" d="M443,-277.94C443,-304.73 443,-351.78 443,-381.66"/>
<polygon fill="#317ac4" stroke="black" points="439.5,-381.82 443,-391.82 446.5,-381.82 439.5,-381.82"/>
</g>
<!-- pyiomica_visibilityGraphCommunityDetection&#45;&gt;pyiomica_globalVariables -->
<g id="edge53" class="edge">
<title>pyiomica_visibilityGraphCommunityDetection&#45;&gt;pyiomica_globalVariables</title><style>.edge>path:hover{stroke-width:8}</style>
<path fill="none" stroke="black" d="M920.35,-272.5C996.6,-287.11 1110.85,-308.99 1180.4,-322.31"/>
<polygon fill="#337fcc" stroke="black" points="1179.85,-325.77 1190.33,-324.21 1181.16,-318.89 1179.85,-325.77"/>
</g>
<!-- pyiomica_visualizationFunctions&#45;&gt;matplotlib -->
<g id="edge3" class="edge">
<title>pyiomica_visualizationFunctions&#45;&gt;matplotlib</title><style>.edge>path:hover{stroke-width:8}</style>
<path fill="none" stroke="black" d="M369.02,-107.41C299.79,-115.26 203.08,-130.6 176,-156.85 143.6,-188.26 152,-210.37 152,-255.49 152,-255.49 152,-255.49 152,-489.35 152,-509.65 160.49,-529.1 171.75,-545.98"/>
<polygon fill="#264c73" stroke="black" points="169.21,-548.45 177.86,-554.56 174.91,-544.39 169.21,-548.45"/>
</g>
<!-- pyiomica_visualizationFunctions&#45;&gt;matplotlib_cm -->
<g id="edge7" class="edge">
<title>pyiomica_visualizationFunctions&#45;&gt;matplotlib_cm</title><style>.edge>path:hover{stroke-width:8}</style>
<path fill="none" stroke="black" d="M364.38,-102.65C262.23,-106.77 91.11,-119.23 42,-156.85 4.18,-185.83 0,-207.84 0,-255.49 0,-255.49 0,-255.49 0,-604.56 0,-649.43 6.32,-663.9 33,-699.98 37.95,-706.68 43.92,-712.91 50.32,-718.6"/>
<polygon fill="#264c73" stroke="black" points="48.09,-721.29 58,-725.03 52.58,-715.93 48.09,-721.29"/>
</g>
<!-- pyiomica_visualizationFunctions&#45;&gt;matplotlib_collections -->
<g id="edge8" class="edge">
<title>pyiomica_visualizationFunctions&#45;&gt;matplotlib_collections</title><style>.edge>path:hover{stroke-width:8}</style>
<path fill="none" stroke="black" d="M366.35,-105.18C281.77,-111.66 152.62,-126.31 115,-156.85 78.4,-186.57 76,-208.35 76,-255.49 76,-255.49 76,-255.49 76.19,-544.17"/>
<polygon fill="#264c73" stroke="black" points="72.69,-544.56 76.2,-554.56 79.69,-544.56 72.69,-544.56"/>
</g>
<!-- pyiomica_visualizationFunctions&#45;&gt;matplotlib_patches -->
<g id="edge12" class="edge">
<title>pyiomica_visualizationFunctions&#45;&gt;matplotlib_patches</title><style>.edge>path:hover{stroke-width:8}</style>
<path fill="none" stroke="black" d="M365.12,-103.86C271.71,-109.21 122.27,-122.92 79,-156.85 41.64,-186.15 38,-208.02 38,-255.49 38,-255.49 38,-255.49 38,-604.56 38,-644.26 29.98,-664.09 51.5,-693.09"/>
<polygon fill="#264c73" stroke="black" points="48.98,-695.55 58,-701.11 54.42,-691.14 48.98,-695.55"/>
</g>
<!-- pyiomica_visualizationFunctions&#45;&gt;matplotlib_patheffects -->
<g id="edge17" class="edge">
<title>pyiomica_visualizationFunctions&#45;&gt;matplotlib_patheffects</title><style>.edge>path:hover{stroke-width:8}</style>
<path fill="none" stroke="black" d="M373.22,-109.72C314.36,-118.78 236.23,-134.58 214,-156.85 182.13,-188.79 190,-210.37 190,-255.49 190,-255.49 190,-255.49 190,-489.35 190,-526.84 220.47,-526.27 252,-546.56 255.73,-548.96 259.02,-549.19 262.04,-549.62"/>
<polygon fill="#264c73" stroke="black" points="260.55,-552.8 271,-554.56 263.93,-546.67 260.55,-552.8"/>
</g>
<!-- pyiomica_visualizationFunctions&#45;&gt;matplotlib_pyplot -->
<g id="edge19" class="edge">
<title>pyiomica_visualizationFunctions&#45;&gt;matplotlib_pyplot</title><style>.edge>path:hover{stroke-width:8}</style>
<path fill="none" stroke="black" d="M367.86,-106.55C291.88,-113.97 181.19,-129.22 149,-156.85 113.7,-187.15 114,-208.97 114,-255.49 114,-255.49 114,-255.49 114.38,-544.17"/>
<polygon fill="#264c73" stroke="black" points="110.88,-544.57 114.4,-554.56 117.88,-544.56 110.88,-544.57"/>
</g>
<!-- pyiomica_visualizationFunctions&#45;&gt;pyiomica_clusteringFunctions -->
<g id="edge34" class="edge">
<title>pyiomica_visualizationFunctions&#45;&gt;pyiomica_clusteringFunctions</title><style>.edge>path:hover{stroke-width:8}</style>
<path fill="none" stroke="black" d="M492.03,-116.38C530.49,-128.74 584.09,-145.95 624.38,-158.89"/>
<polygon fill="#264c73" stroke="black" points="623.47,-162.27 634.06,-161.99 625.61,-155.6 623.47,-162.27"/>
</g>
<!-- pyiomica_visualizationFunctions&#45;&gt;pyiomica_coreFunctions -->
<g id="edge38" class="edge">
<title>pyiomica_visualizationFunctions&#45;&gt;pyiomica_coreFunctions</title><style>.edge>path:hover{stroke-width:8}</style>
<path fill="none" stroke="black" d="M517.33,-107.24C589.74,-114.88 702.42,-129.99 797,-156.85 867.54,-176.88 945.27,-212.11 991.56,-234.6"/>
<polygon fill="#264c73" stroke="black" points="990.15,-237.81 1000.67,-239.06 993.23,-231.52 990.15,-237.81"/>
</g>
<!-- pyiomica_visualizationFunctions&#45;&gt;pyiomica_extendedDataFrame -->
<g id="edge43" class="edge">
<title>pyiomica_visualizationFunctions&#45;&gt;pyiomica_extendedDataFrame</title><style>.edge>path:hover{stroke-width:8}</style>
<path fill="none" stroke="black" d="M515.19,-108.57C646.94,-123.03 925.3,-153.6 1061.14,-168.52"/>
<polygon fill="#264c73" stroke="black" points="1061.14,-172.04 1071.46,-169.65 1061.9,-165.08 1061.14,-172.04"/>
</g>
<!-- pyiomica_visualizationFunctions&#45;&gt;pyiomica_globalVariables -->
<g id="edge54" class="edge">
<title>pyiomica_visualizationFunctions&#45;&gt;pyiomica_globalVariables</title><style>.edge>path:hover{stroke-width:8}</style>
<path fill="none" stroke="black" d="M462.02,-120.4C500.06,-158.51 589.99,-241.55 684,-277.71 771.55,-311.37 1043.74,-326.23 1172.35,-331.5"/>
<polygon fill="#264c73" stroke="black" points="1172.35,-335 1182.48,-331.91 1172.63,-328.01 1172.35,-335"/>
</g>
<!-- pyiomica_visualizationFunctions&#45;&gt;pyiomica_utilityFunctions -->
<g id="edge60" class="edge">
<title>pyiomica_visualizationFunctions&#45;&gt;pyiomica_utilityFunctions</title><style>.edge>path:hover{stroke-width:8}</style>
<path fill="none" stroke="black" d="M521.84,-102.17C708.02,-106.38 1163.68,-120.33 1222,-156.85 1246.68,-172.31 1261.82,-202.6 1270.24,-225.57"/>
<polygon fill="#264c73" stroke="black" points="1266.99,-226.88 1273.54,-235.21 1273.61,-224.61 1266.99,-226.88"/>
</g>
<!-- pyiomica_visualizationFunctions&#45;&gt;pyiomica_visibilityGraphAuxiliaryFunctions -->
<g id="edge62" class="edge">
<title>pyiomica_visualizationFunctions&#45;&gt;pyiomica_visibilityGraphAuxiliaryFunctions</title><style>.edge>path:hover{stroke-width:8}</style>
<path fill="none" stroke="black" d="M443,-120.88C443,-147.43 443,-194.24 443,-225.07"/>
<polygon fill="#264c73" stroke="black" points="439.5,-225.24 443,-235.24 446.5,-225.24 439.5,-225.24"/>
</g>
<!-- pyiomica_visualizationFunctions&#45;&gt;pyiomica_visibilityGraphCommunityDetection -->
<g id="edge64" class="edge">
<title>pyiomica_visualizationFunctions&#45;&gt;pyiomica_visibilityGraphCommunityDetection</title><style>.edge>path:hover{stroke-width:8}</style>
<path fill="none" stroke="black" d="M516.57,-107.69C597.21,-116.45 720.53,-133.19 761,-156.85 789.37,-173.44 812.06,-203.92 826.12,-226.62"/>
<polygon fill="#264c73" stroke="black" points="823.12,-228.42 831.26,-235.2 829.12,-224.82 823.12,-228.42"/>
</g>
<!-- pyiomica_visualizationFunctions&#45;&gt;numpy -->
<g id="edge29" class="edge">
<title>pyiomica_visualizationFunctions&#45;&gt;numpy</title><style>.edge>path:hover{stroke-width:8}</style>
<path fill="none" stroke="black" d="M387.07,-114.68C323.37,-134.41 228,-177.06 228,-255.49 228,-255.49 228,-255.49 228,-335.92 228,-420.8 249.76,-441.28 287,-517.56 295.71,-535.39 304.08,-536.36 312,-554.56 359.31,-663.24 350.64,-697.82 372,-814.41 376.2,-837.34 379.68,-863.6 381.98,-882.76"/>
<polygon fill="#264c73" stroke="black" points="378.53,-883.35 383.16,-892.87 385.48,-882.53 378.53,-883.35"/>
</g>
<!-- pandas&#45;&gt;numpy -->
<g id="edge27" class="edge">
<title>pandas&#45;&gt;numpy</title><style>.edge>path:hover{stroke-width:8}</style>
<path fill="none" stroke="black" d="M1320.27,-503.32C1313.98,-508.35 1306.48,-513.73 1299,-517.56 1183.64,-576.68 1020,-472.93 1020,-602.56 1020,-602.56 1020,-602.56 1020,-758.2 1020,-881.79 559.13,-904.86 422.64,-908.98"/>
<polygon fill="#3db8b8" stroke="black" points="422.18,-905.49 412.29,-909.27 422.38,-912.49 422.18,-905.49"/>
</g>
<!-- scipy&#45;&gt;matplotlib -->
<g id="edge4" class="edge">
<title>scipy&#45;&gt;matplotlib</title><style>.edge>path:hover{stroke-width:8}</style>
<path fill="none" stroke="black" d="M308.42,-506.54C299.17,-517.44 286.65,-532.22 274.19,-546.91"/>
<polygon fill="#ef06ef" stroke="black" points="271.5,-544.67 267.7,-554.56 276.84,-549.2 271.5,-544.67"/>
</g>
<!-- scipy&#45;&gt;matplotlib_collections -->
<g id="edge9" class="edge">
<title>scipy&#45;&gt;matplotlib_collections</title><style>.edge>path:hover{stroke-width:8}</style>
<path fill="none" stroke="black" d="M295.73,-496.66C267.55,-505.26 223.21,-521.79 190.6,-548.05"/>
<polygon fill="#ef06ef" stroke="black" points="188.32,-545.4 183,-554.56 192.87,-550.72 188.32,-545.4"/>
</g>
<!-- scipy&#45;&gt;matplotlib_patches -->
<g id="edge13" class="edge">
<title>scipy&#45;&gt;matplotlib_patches</title><style>.edge>path:hover{stroke-width:8}</style>
<path fill="none" stroke="black" d="M321.67,-506.54C320.07,-523.57 316.74,-551.63 310.15,-583.33"/>
<polygon fill="#ef06ef" stroke="black" points="306.69,-582.76 308,-593.28 313.53,-584.24 306.69,-582.76"/>
</g>
<!-- scipy&#45;&gt;numpy -->
<g id="edge30" class="edge">
<title>scipy&#45;&gt;numpy</title><style>.edge>path:hover{stroke-width:8}</style>
<path fill="none" stroke="black" d="M350,-500.62C385.11,-517.29 442,-552.09 442,-602.56 442,-602.56 442,-602.56 442,-758.2 442,-806.78 438.12,-820.62 418,-864.84 414.5,-872.53 409.56,-880.2 404.56,-886.97"/>
<polygon fill="#ef06ef" stroke="black" points="401.69,-884.96 398.3,-895 407.21,-889.26 401.69,-884.96"/>
</g>
</g>
</svg>
